<svg width="16" height="15" viewBox="0 0 16 15" fill="none" xmlns="http://www.w3.org/2000/svg">
<path d="M4.50666 3.22664L3.30666 2.0333L2.36666 2.9733L3.55999 4.16664L4.50666 3.22664ZM2.66666 6.99997H0.666656V8.3333H2.66666V6.99997ZM8.66666 0.366638H7.33332V2.3333H8.66666V0.366638ZM13.6333 2.9733L12.6933 2.0333L11.5 3.22664L12.44 4.16664L13.6333 2.9733ZM11.4933 12.1066L12.6867 13.3066L13.6267 12.3666L12.4267 11.1733L11.4933 12.1066ZM13.3333 6.99997V8.3333H15.3333V6.99997H13.3333ZM7.99999 3.66664C5.79332 3.66664 3.99999 5.45997 3.99999 7.66664C3.99999 9.87331 5.79332 11.6666 7.99999 11.6666C10.2067 11.6666 12 9.87331 12 7.66664C12 5.45997 10.2067 3.66664 7.99999 3.66664ZM7.33332 14.9666H8.66666V13H7.33332V14.9666ZM2.36666 12.36L3.30666 13.3L4.49999 12.1L3.55999 11.16L2.36666 12.36Z" fill="white"/>
</svg>
